<?xml version="1.0" encoding="utf-8"?>
<!-- Generator: Adobe Illustrator 16.0.0, SVG Export Plug-In . SVG Version: 6.00 Build 0)  -->
<!DOCTYPE svg PUBLIC "-//W3C//DTD SVG 1.1//EN" "http://www.w3.org/Graphics/SVG/1.1/DTD/svg11.dtd">
<svg version="1.1" xmlns="http://www.w3.org/2000/svg" xmlns:xlink="http://www.w3.org/1999/xlink" x="0px" y="0px" width="500px"
	 height="500px" viewBox="0 0 500 500" enable-background="new 0 0 500 500" xml:space="preserve">
<g id="Layer_7">
	
		<circle fill-rule="evenodd" clip-rule="evenodd" fill="#FFFFFF" stroke="#000000" stroke-width="4.3906" stroke-miterlimit="10" cx="250" cy="250" r="93.667"/>
</g>
<g id="Layer_3">
	
		<circle fill-rule="evenodd" clip-rule="evenodd" fill="#F7941E" stroke="#000000" stroke-width="5" stroke-miterlimit="10" cx="250" cy="250" r="86.667"/>
</g>
<g id="Layer_2">
	<path fill-rule="evenodd" clip-rule="evenodd" fill="#F7941E" d="M142.842,262.931L77.167,336.5c0,0,30,52.334,29.667,53.667
		S232.5,435.5,232.5,435.5s120.334-68.999,118.667-68.333s67.666-45.333,68.666-46s-7-24-7-24L342.5,234.5l-0.611-12.703
		l-6.373,0.248l-8.015,12.538c0,0-30.083-10.75-30-10.167s-7.836,10.789-7.836,10.789l-1.986,1.324l12-20.525l-18.456,20.443
		l-3.056,16.387l-38.492,31.119l-7.614,1.158l-54.79-42.375l-2.854,19.18L150.251,274l27.021-31.512l-23.993,11.271l-9.361,7.407
		L142.842,262.931z"/>
</g>
<g id="Layer_1">
	<g>
		<g>
			<path fill-rule="evenodd" clip-rule="evenodd" d="M447.465,238.866c0,7.577,0,15.154,0,22.731
				c-0.099,0.437-0.261,0.87-0.283,1.311c-0.07,1.354-0.018,2.718-0.139,4.065c-0.751,8.391-1.938,16.72-3.76,24.945
				c-8.127,36.691-25.107,68.69-51.269,95.68c-25.699,26.513-56.555,44.333-92.256,53.731c-10.726,2.823-21.63,4.675-32.69,5.574
				c-2.074,0.168-4.141,0.413-6.212,0.623c-7.012,0-14.023,0-21.036,0c-0.664-0.102-1.326-0.234-1.994-0.297
				c-3.655-0.344-7.32-0.604-10.967-1.015c-12.213-1.38-24.17-3.994-35.888-7.686C128.35,418.801,79.768,369.441,60.981,306.479
				c-4.298-14.402-6.913-29.103-7.835-44.106c-0.085-1.396-0.401-2.778-0.61-4.168c0-5.315,0-10.631,0-15.947
				c0.213-1.496,0.529-2.986,0.621-4.49c0.711-11.706,2.477-23.251,5.281-34.63c15.711-63.751,61.714-115.355,123.089-138.136
				c12.323-4.574,24.977-7.882,37.953-9.944c6.867-1.091,13.779-1.817,20.729-2.15c0.667-0.031,1.326-0.204,1.988-0.311
				c5.316,0,10.631,0,15.947,0c0.383,0.084,0.763,0.215,1.149,0.243c2.593,0.18,5.193,0.281,7.781,0.515
				c11.101,1.003,22.071,2.79,32.848,5.666c43.291,11.546,78.838,34.908,106.422,70.196c18.748,23.985,31.052,51.043,37.282,80.835
				c1.862,8.905,3.273,17.889,3.539,27.015C447.182,237.668,447.36,238.266,447.465,238.866z M341.873,221.655
				c6.88,6.417,13.568,12.658,20.261,18.897c6.742,6.286,13.485,12.568,20.228,18.853c6.701,6.244,13.394,12.501,20.107,18.732
				c6.727,6.243,13.4,12.543,20.363,18.937c0.701-2.619,1.336-4.895,1.918-7.183c2.681-10.536,4.443-21.229,5.319-32.062
				c0.269-3.319,0.506-6.671,0.349-9.989c-0.419-8.87-1.537-17.668-3.225-26.395c-5.533-28.623-16.793-54.781-33.856-78.41
				c-6.495-8.995-13.468-17.586-21.93-24.881c-25.009-21.558-53.554-36.114-85.73-43.541c-9.154-2.113-18.42-3.533-27.78-4.286
				c-3.319-0.267-6.672-0.505-9.989-0.344c-9.435,0.459-18.789,1.679-28.056,3.559c-30.668,6.22-58.324,18.974-82.98,38.227
				c-5.171,4.037-10.274,8.178-14.763,12.98c-6.807,7.282-12.962,15.097-18.517,23.376c-19.668,29.313-30.733,61.597-33.354,96.786
				c-0.151,2.027-0.325,4.071-0.231,6.095c0.39,8.477,1.341,16.894,2.829,25.253c2.654,14.913,6.968,29.323,12.935,43.243
				c0.164,0.384,0.386,0.743,0.662,1.27c22.085-23.548,35.402-36.061,57.486-59.607l12.917-3.013
				c-0.565,0.684-0.99,1.21-1.428,1.726c-14.938,17.579-29.866,35.168-44.838,52.718c-1.359,1.593-2.451,3.183-2.532,5.354
				c-0.036,0.95-0.33,1.89-0.481,2.837c-0.276,1.712-0.534,3.428-0.799,5.141c0.443-0.58,0.62-1.214,0.759-1.856
				c0.489-2.263,1.008-4.521,1.427-6.798c0.225-1.22,0.787-2.165,1.622-3.064c21.926-23.624,43.833-47.266,65.748-70.9
				c0.291-0.313,0.627-0.584,0.955-0.887c0.509,0.355,0.933,0.633,1.338,0.936c13.369,9.97,26.743,19.933,40.102,29.915
				c8.693,6.494,17.562,12.769,25.604,20.094c0.399,0.365,0.787,0.741,1.18,1.112c-1.934-0.116-3.742-0.473-5.55-0.826
				c-5.708-1.116-11.395-2.361-17.131-3.312c-6.184-1.026-12.414-1.779-18.624-2.642c-0.95-0.132-1.91-0.318-2.86-0.287
				c-2.201,0.07-3.257,1.793-2.254,3.77c0.443,0.874,1.197,1.624,1.923,2.31c0.566,0.534,1.301,0.894,1.974,1.309
				c10.53,6.504,21.065,13.002,31.588,19.519c0.458,0.284,1.121,0.415,1.318,1.207c-4.274-0.511-8.421-1.007-12.566-1.5
				c-1.795-0.213-3.589-0.444-5.389-0.608c-0.339-0.031-0.869,0.118-1.011,0.359c-0.142,0.243,0.024,0.739,0.181,1.063
				c0.167,0.346,0.475,0.627,0.733,0.927c4.135,4.796,8.271,9.591,12.413,14.383c0.265,0.308,0.572,0.578,0.861,0.866
				c0.075-0.067,0.151-0.137,0.226-0.205c-3.725-4.925-7.45-9.848-11.375-15.036c0.876,0.084,1.419,0.097,1.947,0.195
				c4.441,0.835,8.876,1.694,13.317,2.528c2.942,0.553,5.891,1.076,8.837,1.606c0.707,0.127,1.417,0.068,1.798-0.605
				c0.413-0.729,0.147-1.461-0.401-2.016c-0.513-0.517-1.102-0.968-1.701-1.388c-8.33-5.845-16.666-11.679-24.999-17.516
				c-0.49-0.344-0.966-0.704-1.448-1.058c0.397-0.191,0.667-0.15,0.935-0.103c3.39,0.609,6.766,1.309,10.172,1.811
				c7.041,1.042,14.096,1.985,21.148,2.956c2.406,0.332,4.814,0.659,7.229,0.921c1.035,0.111,2.08-0.03,2.653-1.088
				c0.549-1.014,0.294-2.037-0.345-2.87c-0.608-0.795-1.354-1.52-2.152-2.131c-5.205-3.99-10.44-7.939-15.662-11.905
				c-0.517-0.393-1.012-0.813-1.576-1.266c13.869-15.913,27.598-31.667,41.375-47.475c1.29,0.95,2.443,1.755,3.544,2.629
				c0.638,0.507,1.208,0.65,2.01,0.327c1.622-0.655,3.29-1.195,4.944-1.77c1.257-0.437,2.52-0.854,4.165-1.41
				c-0.521,0.788-0.813,1.245-1.12,1.692c-1.468,2.143-3.09,4.199-4.388,6.441c-6.933,11.985-13.785,24.015-20.662,36.032
				c-0.294,0.514-0.553,1.046-0.829,1.57c0.636-0.381,1.043-0.898,1.43-1.431c7.607-10.476,15.188-20.971,22.831-31.418
				c3.453-4.718,6.056-9.936,9.04-14.929c0.454-0.762,0.496-1.481-0.086-2.192c-0.619-0.754-1.519-1.054-2.429-0.759
				c-0.374,0.121-0.722,0.323-1.08,0.491c-3.122,1.459-6.241,2.923-9.368,4.372c-0.375,0.174-0.788,0.266-1.482,0.494
				c4.091-6.998,8.012-13.704,11.978-20.489c0.637,0.347,1.132,0.599,1.609,0.88c6.326,3.734,12.665,7.448,18.96,11.233
				c1.004,0.603,1.768,0.627,2.793,0.094c3.708-1.93,7.463-3.767,11.204-5.632c0.481-0.239,0.985-0.436,1.479-0.652
				c-0.103,0.097-0.778,1.541-0.778,1.541c-1.952,2.705-3.932,5.39-5.853,8.116c-0.915,1.297-0.837,2.177,0.164,3.365
				c0.325,0.386,0.714,0.724,1.1,1.054c21.852,18.729,43.706,37.456,65.563,56.179c0.361,0.309,0.761,0.573,1.143,0.859
				c0.067-0.083,0.135-0.166,0.201-0.248c-21.117-19.57-42.235-39.139-63.385-58.737
				C336.478,229.931,339.097,225.914,341.873,221.655z"/>
		</g>
	</g>
</g>
<g id="Layer_4">
	<path fill-rule="evenodd" clip-rule="evenodd" fill="none" d="M211.792,148.706c55.947-21.103,118.399,7.142,139.503,63.086
		c21.102,55.941-7.143,118.398-63.09,139.5c-55.938,21.102-118.394-7.143-139.498-63.086
		C127.606,232.265,155.852,169.806,211.792,148.706z"/>
	<text transform="matrix(0.0161 -0.9999 0.9999 0.0161 141.4775 265.25)" font-family="'DyerArtsandCrafts'" font-size="68.9103">The Horizon</text>
</g>
<g id="Layer_6">
	<text transform="matrix(1 0 0 1 134.4775 410.5732)" fill="#FFFFFF" font-family="'DyerArtsandCrafts'" font-size="108.0721">Club</text>
</g>
<g id="Layer_8">
	
		<circle fill-rule="evenodd" clip-rule="evenodd" fill="none" stroke="#FFFFFF" stroke-width="3.958" stroke-miterlimit="10" cx="250" cy="250" r="188.668"/>
</g>
<g id="Layer_9">
</g>
</svg>
